<svg width="685" height="176" viewBox="0 0 685 176" fill="none" xmlns="http://www.w3.org/2000/svg">
<g clip-path="url(#clip0_2566_6855)">
<path d="M48.0696 117.8C37.8696 109.65 27.5696 101.63 17.5096 93.3C12.9096 89.5 8.98963 84.89 4.41963 81.05C0.979626 78.16 0.399626 74.74 1.17963 70.81C9.06963 30.73 40.4496 4.36996 78.2396 0.559962C113.24 -2.96004 140.88 10.05 160.9 39C161.72 40.18 162.34 41.5 163.43 43.4C151.49 48.25 140.04 53.05 128.42 57.39C127.27 57.82 124.79 55.74 123.4 54.36C106.81 37.85 83.8296 34.63 63.4496 46.07C45.2796 56.27 36.7096 75.83 40.8196 98.07C41.4496 101.47 42.3796 104.89 43.7096 108.07C45.0196 111.2 47.0096 114.04 48.6996 117C48.4896 117.26 48.2796 117.53 48.0796 117.79L48.0696 117.8Z" fill="#EC6B15"/>
<path d="M165.1 128.89C151.19 161.94 105.42 182.61 67.9401 173.69C23.5701 163.13 -1.08987 122.12 0.0401274 90.0298C6.34013 95.7998 12.2701 101.46 18.4501 106.83C33.6101 120 49.9901 131.48 69.8401 136.05C95.7601 142.01 111.68 137.97 127.75 118.26C129.14 116.56 130.01 114.85 132.9 116.05C143.46 120.44 154.13 124.55 165.11 128.9L165.1 128.89Z" fill="white"/>
<path d="M658.28 107.1C661.16 98.5101 664.05 89.9201 666.93 81.3201C666.98 81.1601 667 81.0001 667.05 80.8401C669.49 73.1468 675.154 69.7668 684.04 70.7001C682.48 75.6001 681.02 80.4101 679.41 85.1701C675.07 98.0401 670.57 110.86 666.33 123.76C665.31 126.88 663.93 128.25 660.39 128.21C650.56 128.1 650.54 128.29 647.45 119.07C644.97 111.67 642.56 104.25 640.07 96.8601C639.45 95.0301 638.69 93.2501 637.43 89.9801C635.54 95.3801 634.12 99.3301 632.78 103.32C630.44 110.23 627.97 117.11 625.93 124.11C625.01 127.29 623.43 128.19 620.28 128.18C610.43 128.18 610.38 128.31 607.26 119.08C602.31 104.47 597.42 89.8401 592.53 75.2101C592.07 73.8401 591.81 72.4001 591.32 70.4401C595.26 70.4401 598.79 70.0701 602.16 70.6201C603.55 70.8501 605.21 72.8301 605.75 74.3701C609.08 83.7601 612.12 93.2501 615.28 102.7C615.79 104.22 616.41 105.71 617.47 108.48C618.61 105.61 619.35 104.01 619.89 102.35C622.95 93.0501 626.09 83.7701 628.92 74.4001C629.86 71.2701 631.41 70.2501 634.59 70.3501C647.03 70.7701 643.93 68.4701 647.77 79.7501C650.86 88.8301 653.75 97.9801 656.72 107.09C657.23 107.09 657.75 107.09 658.26 107.09L658.28 107.1Z" fill="white"/>
<path d="M432.23 119.83C425.17 129.18 410.17 132.16 398.7 126.97C385.16 120.85 377.64 105.81 381.26 92.1101C385.24 77.0601 398.71 67.3901 413.54 68.9301C429.23 70.5701 440.41 82.1901 441.3 97.8001C441.72 105.09 441.11 105.74 433.8 105.75C422.83 105.75 411.87 105.73 400.9 105.75C399.16 105.75 397.41 105.93 395.53 106.03C398 113.66 405.78 118.49 413.94 116.16C421.01 114.14 426.03 117.49 432.23 119.82V119.83ZM395.79 92.1801H426.25C423.57 85.0301 417.66 81.5101 409.6 81.8801C402.96 82.1801 397.44 86.1701 395.79 92.1801Z" fill="white"/>
<path d="M249.43 108.51C252.28 111.59 254.96 114.48 257.66 117.4C247.64 131.74 219.14 133.73 203.33 121.03C183.12 104.79 180.8 76.8098 198.11 58.1698C213.91 41.1598 242.51 40.5998 258.12 57.2598C255.19 60.0498 252.24 62.8498 249.27 65.6698C230.92 54.5898 216.78 55.9098 205.62 69.7998C196.93 80.6098 197.8 97.6798 207.75 107.62C218.35 118.22 235.41 120.32 249.43 108.49V108.51Z" fill="white"/>
<path d="M311.03 74.19C311.29 72.79 311.5 71.69 311.74 70.43H324.86V127.78H311.41C311.41 118.23 311.46 108.8 311.39 99.37C311.33 90.88 305.99 84.1 298.12 82.31C290.3 80.53 282.67 84.03 278.72 91.19C272.57 102.36 280.5 116.05 293.29 116.26C295.58 116.3 297.88 115.98 300.48 115.81C301.95 119.46 303.48 123.26 304.99 127.04C292.49 133.42 277.88 128.16 270.91 119.69C261.06 107.72 261.01 91.01 270.52 79.23C279.82 67.71 294.3 65.78 311.02 74.2L311.03 74.19Z" fill="white"/>
<path d="M496.33 93.9399C486.17 93.9399 476.87 94.1199 467.59 93.8599C463.45 93.7399 462.03 95.0699 462.16 99.2199C462.42 107.52 462.15 115.83 462.29 124.13C462.34 127.17 461.24 128.39 458.22 128.13C456.57 127.98 454.89 128.01 453.23 128.12C450.5 128.3 449.31 127.23 449.32 124.4C449.37 99.6599 449.3 74.9099 449.44 50.1699C449.44 48.9999 450.99 46.8399 451.84 46.8299C468.93 46.6299 486.02 46.6799 502.83 46.6799C503.28 47.4499 503.56 47.7199 503.58 48.0099C504.227 55.9832 500.644 59.9632 492.83 59.9499C484.18 59.9499 475.53 60.0499 466.88 59.8799C463.53 59.8099 461.96 60.7499 462.18 64.3499C462.42 68.3199 462.41 72.3299 462.19 76.2999C462 79.7199 463.19 81.0499 466.72 80.9499C473.87 80.7499 481.03 81.0999 488.18 80.7999C492.11 80.6399 494.03 81.9799 494.54 85.8399C494.86 88.2599 495.58 90.6299 496.32 93.9499L496.33 93.9399Z" fill="white"/>
<path d="M591.94 99.3198C591.94 116.14 578.56 129.56 561.62 129.76C544.72 129.95 530.94 116.14 531.02 99.0798C531.1 82.1898 544.53 68.6898 561.32 68.6198C578.38 68.5598 591.94 82.1498 591.94 99.3198ZM561.39 116.48C570.97 116.58 578.97 108.84 579.04 99.4098C579.11 89.8698 571.37 82.0098 561.81 81.9098C552.03 81.7998 544.14 89.2198 543.93 98.7198C543.71 108.51 551.46 116.39 561.4 116.49L561.39 116.48Z" fill="white"/>
<path d="M375.37 78.2299C372.57 80.1799 370.02 81.5599 368 83.4799C366.03 85.3599 364.87 84.9099 362.53 83.8599C358.95 82.2599 354.79 81.4299 350.86 81.3399C349.31 81.3099 346.84 83.9299 346.4 85.7399C346.1 86.9899 348.24 89.5899 349.87 90.3799C353.73 92.2399 358.11 93.0399 361.98 94.8899C369.33 98.4099 376.22 102.54 376.02 112.27C375.81 122.32 368.45 129.36 357.34 129.53C348.97 129.66 341.3 127.24 333.51 120.49C335.98 118.54 338.16 116.49 340.66 115.01C341.87 114.3 343.78 114.3 345.25 114.59C349.54 115.42 353.74 117.03 358.04 117.34C359.59 117.45 362.4 114.93 362.69 113.28C362.95 111.73 361.03 108.97 359.37 108.11C355.72 106.24 351.5 105.5 347.72 103.82C341 100.82 334.23 97.5899 333.2 89.0199C332.03 79.1999 337.77 71.3399 347.53 69.5699C357.34 67.7899 366.16 69.8099 375.36 78.2399L375.37 78.2299Z" fill="white"/>
<path d="M510.86 46.8701H522.79C522.93 48.6601 523.15 50.2601 523.15 51.8501C523.17 75.3901 523.19 98.9301 523.09 122.48C523.09 124.28 522.41 127.55 521.74 127.63C518.19 128.06 514.55 127.76 510.95 127.47C510.62 127.44 510.2 125.74 510.2 124.82C510.2 99.2901 510.24 73.7601 510.29 48.2301C510.29 47.9301 510.52 47.6401 510.85 46.8801L510.86 46.8701Z" fill="white"/>
</g>
<defs>
<clipPath id="clip0_2566_6855">
<rect width="684.04" height="175.77" fill="white"/>
</clipPath>
</defs>
</svg>
