<svg version="1.1" id="Layer_1" xmlns="http://www.w3.org/2000/svg" xmlns:xlink="http://www.w3.org/1999/xlink" x="0px" y="0px"
	 width="100%" viewBox="0 0 766 287" enable-background="new 0 0 766 287" xml:space="preserve">
<path fill="#000000" opacity="1.000000" stroke="none" 
	d="
M767.000000,122.000015 
	C767.000000,177.321930 767.000000,232.643860 767.000000,287.965759 
	C766.844788,287.977173 766.689514,287.998566 766.534302,287.998566 
	C511.420258,288.000000 256.306213,288.000000 1.096076,288.000000 
	C1.096076,192.417191 1.096076,96.834259 1.096076,1.125662 
	C256.333282,1.125662 511.666626,1.125662 767.000000,1.125662 
	C767.000000,36.750423 767.000000,72.410202 766.606934,108.531013 
	C764.177551,109.125130 762.077698,109.023376 760.146851,109.545959 
	C759.622803,109.687798 758.997559,112.157219 759.464111,112.801628 
	C761.784302,116.006577 764.453613,118.958809 767.000000,122.000015 
M139.005981,95.981163 
	C139.005981,95.981163 138.922089,96.003929 139.113266,96.657555 
	C142.146118,99.695831 145.331497,102.599609 148.165344,105.813362 
	C150.592667,108.566109 152.730118,108.301872 155.852325,105.977974 
	C167.299377,101.288155 178.746445,96.598328 190.975983,91.587921 
	C185.907074,85.028053 181.885559,78.811218 176.862518,73.550713 
	C168.464294,64.755455 158.766907,57.532879 146.915237,52.384609 
	C139.366592,47.677898 131.083176,46.478706 121.537209,47.029453 
	C115.480438,45.145226 109.482559,46.398941 103.345070,46.833328 
	C82.886650,48.281292 65.565659,56.813366 50.696671,70.123260 
	C36.138542,83.154892 27.702938,100.056175 24.221748,119.263191 
	C23.777119,121.716393 24.285965,125.247978 25.815897,127.009529 
	C37.548733,140.518646 51.768238,151.289993 65.868988,162.145248 
	C67.029343,163.038513 69.103310,162.745026 71.067307,163.052139 
	C70.882011,161.675156 70.852798,161.022308 70.701591,160.399078 
	C68.056030,149.494553 65.282402,138.912888 66.712769,127.180840 
	C69.369942,105.386398 88.867447,89.799522 110.246101,88.930138 
	C120.206421,88.525093 129.285431,91.209595 138.304764,95.624062 
	C138.513000,95.828545 138.756256,95.974953 139.005981,95.981163 
M529.869690,107.578407 
	C529.869690,102.822052 529.869690,98.065704 529.869690,92.996979 
	C511.201477,92.996979 492.827789,92.990028 474.454315,93.038338 
	C474.009430,93.039505 473.566193,93.656555 472.995544,94.917801 
	C472.996002,120.953819 472.968903,146.989960 473.077850,173.025513 
	C473.083313,174.333313 474.266418,175.636200 475.832458,177.036514 
	C479.571869,177.011230 483.311249,176.985962 487.825073,176.572586 
	C487.898895,165.684906 487.972717,154.797241 488.138611,143.613785 
	C488.138611,143.613785 487.961823,143.359421 488.850464,143.023193 
	C499.848450,143.023193 510.846405,143.023193 522.324646,143.023193 
	C521.763306,141.128082 521.366760,139.789398 521.122314,137.701538 
	C520.121033,134.804886 519.119812,131.908218 517.606995,128.302414 
	C513.500305,128.233871 509.391663,128.221863 505.287323,128.083267 
	C499.449341,127.886093 493.614471,127.595894 487.954865,126.379837 
	C487.993988,120.290253 488.033081,114.200676 488.987854,108.044815 
	C502.350586,108.005219 515.713318,107.965614 529.869690,107.578407 
M547.087158,93.903557 
	C543.045898,93.943550 539.004700,93.983543 534.168091,94.385727 
	C534.116577,101.872856 534.113159,109.360695 534.004150,116.846985 
	C533.721863,136.229248 533.374023,155.610626 533.163879,174.993561 
	C533.156677,175.651184 534.346497,176.321793 535.889404,177.071716 
	C539.849121,176.745361 543.808777,176.419022 548.293274,176.667084 
	C548.532471,175.956009 548.980042,175.245193 548.980957,174.533844 
	C549.012329,148.675751 549.012939,122.817596 548.955933,96.959587 
	C548.953735,95.975143 548.339844,94.992043 547.087158,93.903557 
M348.312378,117.152306 
	C343.600800,117.952591 338.889221,118.752884 332.730469,119.798973 
	C320.473724,112.357513 302.163544,115.953102 294.676392,126.417503 
	C286.168945,138.307953 284.479553,159.529953 297.484314,171.276749 
	C306.058075,179.021133 322.105682,180.661789 330.120819,174.721100 
	C329.384674,172.788269 328.499969,170.836975 327.895142,168.802490 
	C326.494019,164.089340 324.397644,160.996124 318.806458,163.817139 
	C317.922516,164.263107 316.542725,163.798996 315.404510,163.656937 
	C305.768402,162.454102 300.208832,150.769913 303.133209,142.064743 
	C305.531219,134.926590 312.396973,130.095581 319.826080,130.831802 
	C328.165619,131.658249 334.384399,137.094986 335.028870,145.122971 
	C335.018555,153.900177 334.959167,162.677826 335.037964,171.454224 
	C335.054352,173.278976 335.582550,175.099121 336.819885,176.960632 
	C340.936249,176.939194 345.052582,176.917755 350.028992,176.968903 
	C350.335358,176.654846 350.908997,176.341599 350.909943,176.026611 
	C350.968353,156.887314 350.993744,137.747787 350.919189,118.608719 
	C350.917236,118.103546 349.780548,117.602783 348.312378,117.152306 
M466.392090,153.320358 
	C469.946655,133.767654 458.061493,119.162270 440.074585,116.421753 
	C427.127655,114.449135 414.033081,118.967972 407.434753,134.567078 
	C402.767090,145.601852 403.587036,155.949127 409.773865,165.167252 
	C420.800049,181.595779 445.098816,182.499496 457.930695,169.426483 
	C455.435822,165.712067 446.132141,162.271759 441.560455,163.141373 
	C432.801727,164.807373 424.731110,163.287125 421.964081,154.990036 
	C435.160156,154.994064 448.356415,155.027786 461.552124,154.960480 
	C463.024567,154.952988 464.494110,154.371307 466.392090,153.320358 
M36.591488,148.931839 
	C32.664791,145.022934 28.738098,141.114029 24.315332,136.711304 
	C22.957197,174.051590 50.234699,221.026566 110.169601,224.765518 
	C129.254272,225.956085 147.543182,219.858444 163.347488,208.859360 
	C174.917374,200.807266 184.810349,190.699631 190.913605,177.130844 
	C179.575211,172.532486 168.567688,168.222321 157.711731,163.559250 
	C154.936295,162.367096 154.170166,163.457489 152.593124,165.353119 
	C149.550903,169.009888 146.257477,172.594971 142.525101,175.515747 
	C128.902939,186.175888 113.337364,188.167114 96.932358,184.368607 
	C73.429169,178.926559 54.662693,165.155136 36.591488,148.931839 
M693.656311,169.053680 
	C699.082275,152.345551 704.508240,135.637405 710.113464,118.377457 
	C704.909302,118.377457 700.192749,118.377457 695.280151,118.377457 
	C691.359009,130.105392 687.397156,141.955048 683.435364,153.804718 
	C683.044983,153.762512 682.654663,153.720322 682.264282,153.678131 
	C678.486572,141.794952 674.708801,129.911789 670.903259,117.941101 
	C666.198303,117.941101 662.030457,117.702950 657.917603,118.074379 
	C656.537292,118.199043 654.556213,119.616615 654.111755,120.885353 
	C650.912720,130.016907 648.075867,139.274612 645.023071,148.458710 
	C644.529907,149.942429 643.534058,151.259033 642.338135,153.442383 
	C638.429321,142.002182 635.023010,131.718552 631.319275,121.543167 
	C630.784851,120.074921 628.924744,118.274872 627.499084,118.101646 
	C623.593506,117.627098 619.592468,117.938103 615.365662,117.938103 
	C621.642090,136.884628 627.736084,155.489548 634.084106,174.007339 
	C634.543579,175.347549 636.730530,176.463150 638.335388,176.941986 
	C640.016785,177.443665 642.027161,176.746490 643.785339,177.104965 
	C649.610291,178.292633 651.614319,174.968475 653.051514,170.163208 
	C656.003601,160.292740 659.271118,150.516602 662.809204,139.449219 
	C667.281738,152.796082 671.295044,164.772736 675.407715,177.045776 
	C678.301331,177.045776 681.156311,176.723953 683.911194,177.112305 
	C689.769897,177.938217 692.600830,175.322998 693.656311,169.053680 
M213.033646,121.681679 
	C212.187424,123.874756 210.581024,126.085403 210.631226,128.257782 
	C210.814148,136.173874 210.759033,144.066284 213.802246,151.762589 
	C218.684723,164.110352 227.609146,171.938446 239.679337,176.253723 
	C246.355118,178.640411 253.407028,179.061844 260.629272,177.921951 
	C269.904816,176.457962 277.615448,172.600784 284.892395,164.568604 
	C282.841370,163.059525 280.721497,161.899170 279.121735,160.237961 
	C275.979553,156.975128 274.185211,155.246506 268.986755,158.969391 
	C259.188141,165.986694 247.550430,166.054184 237.385590,159.346558 
	C228.953003,153.782028 224.653381,144.703903 225.165924,134.554321 
	C226.096741,116.122520 243.796707,101.725410 262.447479,108.459579 
	C266.658875,109.980179 270.408203,112.780571 274.125244,114.855087 
	C277.454437,111.704926 280.683868,108.649155 283.891327,105.614174 
	C274.241058,93.890938 258.538269,90.584175 245.459122,92.874634 
	C229.483627,95.672310 218.549606,105.306229 213.033646,121.681679 
M577.016541,177.167725 
	C583.376404,179.216919 589.662354,177.830063 595.940674,176.716476 
	C604.752380,175.153549 610.429443,169.346390 614.500244,162.003555 
	C619.571899,152.855392 619.998047,139.755096 612.781555,130.336914 
	C607.061401,122.871628 600.504761,117.608772 590.258667,116.549973 
	C581.021973,115.595482 573.316101,117.203484 566.459290,123.008980 
	C550.070740,136.884842 551.559021,168.361084 577.016541,177.167725 
M375.528015,154.128784 
	C379.793793,155.883133 384.059570,157.637482 388.513458,159.469193 
	C384.200317,166.218491 376.065887,166.944321 370.397186,161.752487 
	C365.074005,156.877121 364.710480,164.493286 361.535858,165.225342 
	C360.249207,165.522049 359.450500,168.418961 358.741028,170.253082 
	C358.624084,170.555374 360.094147,171.509201 360.868958,172.112946 
	C368.575745,178.118195 377.433685,178.701767 386.678284,177.677338 
	C392.485229,177.033875 396.957916,174.333679 399.508026,169.113495 
	C402.184143,163.635330 404.082581,157.611893 399.649719,152.367355 
	C396.565460,148.718338 392.552704,145.582932 388.396271,143.187012 
	C384.177490,140.755157 379.220703,139.632782 374.706085,137.664093 
	C373.594482,137.179367 372.210114,135.597519 372.261200,134.586212 
	C372.331909,133.185471 373.599884,130.708344 374.428436,130.677795 
	C378.190796,130.539124 382.960846,129.785599 385.530365,131.708847 
	C389.506012,134.684525 391.691620,134.411835 394.691254,131.128937 
	C396.430756,129.225143 398.595734,127.710083 400.674042,125.930344 
	C391.667023,116.671494 381.634399,114.907272 370.550171,116.801262 
	C360.914520,118.447723 353.881683,134.388412 359.024994,142.764023 
	C362.704163,148.755356 368.879456,151.154984 375.528015,154.128784 
z"/>
<path fill="#FEFEFE" opacity="1.000000" stroke="none" 
	d="
M767.000000,121.536827 
	C764.453613,118.958809 761.784302,116.006577 759.464111,112.801628 
	C758.997559,112.157219 759.622803,109.687798 760.146851,109.545959 
	C762.077698,109.023376 764.177551,109.125130 766.606934,108.996025 
	C767.000000,113.024544 767.000000,117.049088 767.000000,121.536827 
z"/>
<path fill="#F96A2E" opacity="1.000000" stroke="none" 
	d="
M147.258286,53.087700 
	C158.766907,57.532879 168.464294,64.755455 176.862518,73.550713 
	C181.885559,78.811218 185.907074,85.028053 190.975983,91.587921 
	C178.746445,96.598328 167.299377,101.288155 155.119049,105.903000 
	C152.156601,104.724174 149.797119,103.819862 147.729004,102.469360 
	C144.684341,100.481171 141.847473,98.174782 138.922089,96.003929 
	C138.922089,96.003929 139.005981,95.981163 138.913361,95.874405 
	C138.598282,95.587891 138.375793,95.408142 138.153320,95.228394 
	C129.285431,91.209595 120.206421,88.525093 110.246101,88.930138 
	C88.867447,89.799522 69.369942,105.386398 66.712769,127.180840 
	C65.282402,138.912888 68.056030,149.494553 70.701591,160.399078 
	C70.852798,161.022308 70.882011,161.675156 71.067307,163.052139 
	C69.103310,162.745026 67.029343,163.038513 65.868988,162.145248 
	C51.768238,151.289993 37.548733,140.518646 25.815897,127.009529 
	C24.285965,125.247978 23.777119,121.716393 24.221748,119.263191 
	C27.702938,100.056175 36.138542,83.154892 50.696671,70.123260 
	C65.565659,56.813366 82.886650,48.281292 103.345070,46.833328 
	C109.482559,46.398941 115.480438,45.145226 122.279221,47.277344 
	C131.100250,49.379387 139.179260,51.233543 147.258286,53.087700 
z"/>
<path fill="#363636" opacity="1.000000" stroke="none" 
	d="
M36.837715,149.189972 
	C54.662693,165.155136 73.429169,178.926559 96.932358,184.368607 
	C113.337364,188.167114 128.902939,186.175888 142.525101,175.515747 
	C146.257477,172.594971 149.550903,169.009888 152.593124,165.353119 
	C154.170166,163.457489 154.936295,162.367096 157.711731,163.559250 
	C168.567688,168.222321 179.575211,172.532486 190.913605,177.130844 
	C184.810349,190.699631 174.917374,200.807266 163.347488,208.859360 
	C147.543182,219.858444 129.254272,225.956085 110.169601,224.765518 
	C50.234699,221.026566 22.957197,174.051590 24.315332,136.711304 
	C28.738098,141.114029 32.664791,145.022934 36.837715,149.189972 
z"/>
<path fill="#3A3A3A" opacity="1.000000" stroke="none" 
	d="
M693.459167,169.402191 
	C692.600830,175.322998 689.769897,177.938217 683.911194,177.112305 
	C681.156311,176.723953 678.301331,177.045776 675.407715,177.045776 
	C671.295044,164.772736 667.281738,152.796082 662.809204,139.449219 
	C659.271118,150.516602 656.003601,160.292740 653.051514,170.163208 
	C651.614319,174.968475 649.610291,178.292633 643.785339,177.104965 
	C642.027161,176.746490 640.016785,177.443665 638.335388,176.941986 
	C636.730530,176.463150 634.543579,175.347549 634.084106,174.007339 
	C627.736084,155.489548 621.642090,136.884628 615.365662,117.938103 
	C619.592468,117.938103 623.593506,117.627098 627.499084,118.101646 
	C628.924744,118.274872 630.784851,120.074921 631.319275,121.543167 
	C635.023010,131.718552 638.429321,142.002182 642.338135,153.442383 
	C643.534058,151.259033 644.529907,149.942429 645.023071,148.458710 
	C648.075867,139.274612 650.912720,130.016907 654.111755,120.885353 
	C654.556213,119.616615 656.537292,118.199043 657.917603,118.074379 
	C662.030457,117.702950 666.198303,117.941101 670.903259,117.941101 
	C674.708801,129.911789 678.486572,141.794952 682.264282,153.678131 
	C682.654663,153.720322 683.044983,153.762512 683.435364,153.804718 
	C687.397156,141.955048 691.359009,130.105392 695.280151,118.377457 
	C700.192749,118.377457 704.909302,118.377457 710.113464,118.377457 
	C704.508240,135.637405 699.082275,152.345551 693.459167,169.402191 
z"/>
<path fill="#3C3C3C" opacity="1.000000" stroke="none" 
	d="
M213.204102,121.329681 
	C218.549606,105.306229 229.483627,95.672310 245.459122,92.874634 
	C258.538269,90.584175 274.241058,93.890938 283.891327,105.614174 
	C280.683868,108.649155 277.454437,111.704926 274.125244,114.855087 
	C270.408203,112.780571 266.658875,109.980179 262.447479,108.459579 
	C243.796707,101.725410 226.096741,116.122520 225.165924,134.554321 
	C224.653381,144.703903 228.953003,153.782028 237.385590,159.346558 
	C247.550430,166.054184 259.188141,165.986694 268.986755,158.969391 
	C274.185211,155.246506 275.979553,156.975128 279.121735,160.237961 
	C280.721497,161.899170 282.841370,163.059525 284.892395,164.568604 
	C277.615448,172.600784 269.904816,176.457962 260.629272,177.921951 
	C253.407028,179.061844 246.355118,178.640411 239.679337,176.253723 
	C227.609146,171.938446 218.684723,164.110352 213.802246,151.762589 
	C210.759033,144.066284 210.814148,136.173874 210.631226,128.257782 
	C210.581024,126.085403 212.187424,123.874756 213.204102,121.329681 
z"/>
<path fill="#3C3C3C" opacity="1.000000" stroke="none" 
	d="
M421.046204,155.158768 
	C424.731110,163.287125 432.801727,164.807373 441.560455,163.141373 
	C446.132141,162.271759 455.435822,165.712067 457.930695,169.426483 
	C445.098816,182.499496 420.800049,181.595779 409.773865,165.167252 
	C403.587036,155.949127 402.767090,145.601852 407.434753,134.567078 
	C414.033081,118.967972 427.127655,114.449135 440.074585,116.421753 
	C458.061493,119.162270 469.946655,133.767654 465.726074,153.565491 
	C451.605621,153.796066 438.151001,153.745621 424.697174,153.827637 
	C423.477539,153.835068 422.263062,154.694809 421.046204,155.158768 
M421.266205,137.480972 
	C421.658783,138.381851 422.039398,140.062759 422.445709,140.068985 
	C431.482758,140.207703 440.522705,140.168060 449.561432,140.086212 
	C449.690125,140.085037 449.810089,139.115845 449.432312,138.193939 
	C445.987457,132.495728 440.920441,129.472641 434.412872,131.169998 
	C430.058197,132.305832 426.111206,135.004852 421.266205,137.480972 
z"/>
<path fill="#373737" opacity="1.000000" stroke="none" 
	d="
M349.168945,176.896332 
	C345.052582,176.917755 340.936249,176.939194 336.398743,176.479889 
	C335.982788,168.245392 336.063263,160.490585 335.953827,152.738464 
	C335.913696,149.895447 335.423859,147.058762 335.139191,144.219193 
	C334.384399,137.094986 328.165619,131.658249 319.826080,130.831802 
	C312.396973,130.095581 305.531219,134.926590 303.133209,142.064743 
	C300.208832,150.769913 305.768402,162.454102 315.404510,163.656937 
	C316.542725,163.798996 317.922516,164.263107 318.806458,163.817139 
	C324.397644,160.996124 326.494019,164.089340 327.895142,168.802490 
	C328.499969,170.836975 329.384674,172.788269 330.120819,174.721100 
	C322.105682,180.661789 306.058075,179.021133 297.484314,171.276749 
	C284.479553,159.529953 286.168945,138.307953 294.676392,126.417503 
	C302.163544,115.953102 320.473724,112.357513 332.730469,119.798973 
	C338.889221,118.752884 343.600800,117.952591 348.867340,117.522186 
	C349.617737,118.493706 349.982849,119.095062 349.983917,119.697060 
	C350.015320,137.503708 350.027649,155.310471 349.975311,173.117020 
	C349.971588,174.377563 349.449799,175.636597 349.168945,176.896332 
z"/>
<path fill="#3B3B3B" opacity="1.000000" stroke="none" 
	d="
M576.656128,177.118881 
	C551.559021,168.361084 550.070740,136.884842 566.459290,123.008980 
	C573.316101,117.203484 581.021973,115.595482 590.258667,116.549973 
	C600.504761,117.608772 607.061401,122.871628 612.781555,130.336914 
	C619.998047,139.755096 619.571899,152.855392 614.500244,162.003555 
	C610.429443,169.346390 604.752380,175.153549 595.940674,176.716476 
	C589.662354,177.830063 583.376404,179.216919 576.656128,177.118881 
M601.864563,155.103897 
	C606.446472,146.327881 602.950623,138.922516 595.862366,133.652130 
	C589.871887,129.197968 580.886658,129.847061 575.123230,135.284912 
	C570.761230,139.400528 568.980896,144.666107 570.496460,150.575027 
	C572.062256,156.679520 575.101685,161.325699 581.939575,163.162766 
	C590.541138,165.473709 596.059937,161.060150 601.864563,155.103897 
z"/>
<path fill="#353535" opacity="1.000000" stroke="none" 
	d="
M518.118530,129.011566 
	C519.119812,131.908218 520.121033,134.804886 521.089966,138.546463 
	C519.879578,140.212280 518.717590,141.716431 517.520874,141.744522 
	C508.977386,141.945068 500.425842,141.780258 491.879486,141.907898 
	C490.566681,141.927490 489.267365,142.852921 487.961823,143.359421 
	C487.961823,143.359421 488.138611,143.613785 487.693726,143.953613 
	C487.182770,155.182510 487.116730,166.071594 487.050659,176.960693 
	C483.311249,176.985962 479.571869,177.011230 475.347931,176.577957 
	C474.627747,171.994690 474.186157,167.869751 474.190521,163.745285 
	C474.215118,140.599884 474.347229,117.454605 474.879639,94.267319 
	C492.990784,94.225365 510.665009,94.225365 528.640381,94.225365 
	C528.640381,98.730988 528.640381,102.817032 528.195190,106.905487 
	C515.809875,106.927040 503.869415,106.911552 491.929993,107.015305 
	C490.640991,107.026505 489.357971,107.729172 488.072174,108.111084 
	C488.033081,114.200676 487.993988,120.290253 487.733093,127.125603 
	C488.988678,128.211380 490.461975,128.824219 491.944153,128.846542 
	C500.667786,128.977829 509.393524,128.971527 518.118530,129.011566 
z"/>
<path fill="#3E3E3E" opacity="1.000000" stroke="none" 
	d="
M375.140594,154.076843 
	C368.879456,151.154984 362.704163,148.755356 359.024994,142.764023 
	C353.881683,134.388412 360.914520,118.447723 370.550171,116.801262 
	C381.634399,114.907272 391.667023,116.671494 400.674042,125.930344 
	C398.595734,127.710083 396.430756,129.225143 394.691254,131.128937 
	C391.691620,134.411835 389.506012,134.684525 385.530365,131.708847 
	C382.960846,129.785599 378.190796,130.539124 374.428436,130.677795 
	C373.599884,130.708344 372.331909,133.185471 372.261200,134.586212 
	C372.210114,135.597519 373.594482,137.179367 374.706085,137.664093 
	C379.220703,139.632782 384.177490,140.755157 388.396271,143.187012 
	C392.552704,145.582932 396.565460,148.718338 399.649719,152.367355 
	C404.082581,157.611893 402.184143,163.635330 399.508026,169.113495 
	C396.957916,174.333679 392.485229,177.033875 386.678284,177.677338 
	C377.433685,178.701767 368.575745,178.118195 360.868958,172.112946 
	C360.094147,171.509201 358.624084,170.555374 358.741028,170.253082 
	C359.450500,168.418961 360.249207,165.522049 361.535858,165.225342 
	C364.710480,164.493286 365.074005,156.877121 370.397186,161.752487 
	C376.065887,166.944321 384.200317,166.218491 388.513458,159.469193 
	C384.059570,157.637482 379.793793,155.883133 375.140594,154.076843 
z"/>
<path fill="#373737" opacity="1.000000" stroke="none" 
	d="
M547.768494,176.092667 
	C543.808777,176.419022 539.849121,176.745361 535.538391,176.570953 
	C535.112732,148.721298 535.038086,121.372421 534.963440,94.023544 
	C539.004700,93.983543 543.045898,93.943550 547.478516,94.419800 
	C547.836060,121.988258 547.802246,149.040466 547.768494,176.092667 
z"/>
<path fill="#D3D3D3" opacity="1.000000" stroke="none" 
	d="
M534.565796,94.204636 
	C535.038086,121.372421 535.112732,148.721298 535.082886,176.528259 
	C534.346497,176.321793 533.156677,175.651184 533.163879,174.993561 
	C533.374023,155.610626 533.721863,136.229248 534.004150,116.846985 
	C534.113159,109.360695 534.116577,101.872856 534.565796,94.204636 
z"/>
<path fill="#D3D3D3" opacity="1.000000" stroke="none" 
	d="
M474.442657,94.309280 
	C474.347229,117.454605 474.215118,140.599884 474.190521,163.745285 
	C474.186157,167.869751 474.627747,171.994690 474.882294,176.530396 
	C474.266418,175.636200 473.083313,174.333313 473.077850,173.025513 
	C472.968903,146.989960 472.996002,120.953819 473.392334,94.519150 
	C474.006989,94.183434 474.224823,94.246361 474.442657,94.309280 
z"/>
<path fill="#A2A2A2" opacity="1.000000" stroke="none" 
	d="
M548.030884,176.379883 
	C547.802246,149.040466 547.836060,121.988258 547.940430,94.472183 
	C548.339844,94.992043 548.953735,95.975143 548.955933,96.959587 
	C549.012939,122.817596 549.012329,148.675751 548.980957,174.533844 
	C548.980042,175.245193 548.532471,175.956009 548.030884,176.379883 
z"/>
<path fill="#EBEBEB" opacity="1.000000" stroke="none" 
	d="
M474.879639,94.267319 
	C474.224823,94.246361 474.006989,94.183434 473.455688,94.053429 
	C473.566193,93.656555 474.009430,93.039505 474.454315,93.038338 
	C492.827789,92.990028 511.201477,92.996979 529.869690,92.996979 
	C529.869690,98.065704 529.869690,102.822052 529.357971,107.499023 
	C528.777588,107.247452 528.708984,107.075256 528.640381,106.903069 
	C528.640381,102.817032 528.640381,98.730988 528.640381,94.225365 
	C510.665009,94.225365 492.990784,94.225365 474.879639,94.267319 
z"/>
<path fill="#FEFEFE" opacity="1.000000" stroke="none" 
	d="
M349.598969,176.932617 
	C349.449799,175.636597 349.971588,174.377563 349.975311,173.117020 
	C350.027649,155.310471 350.015320,137.503708 349.983917,119.697060 
	C349.982849,119.095062 349.617737,118.493706 349.297668,117.496017 
	C349.780548,117.602783 350.917236,118.103546 350.919189,118.608719 
	C350.993744,137.747787 350.968353,156.887314 350.909943,176.026611 
	C350.908997,176.341599 350.335358,176.654846 349.598969,176.932617 
z"/>
<path fill="#FEFEFE" opacity="1.000000" stroke="none" 
	d="
M421.505127,155.074402 
	C422.263062,154.694809 423.477539,153.835068 424.697174,153.827637 
	C438.151001,153.745621 451.605621,153.796066 465.512512,153.933273 
	C464.494110,154.371307 463.024567,154.952988 461.552124,154.960480 
	C448.356415,155.027786 435.160156,154.994064 421.505127,155.074402 
z"/>
<path fill="#616161" opacity="1.000000" stroke="none" 
	d="
M528.195190,106.905487 
	C528.708984,107.075256 528.777588,107.247452 528.961182,107.672821 
	C515.713318,107.965614 502.350586,108.005219 488.530029,108.077950 
	C489.357971,107.729172 490.640991,107.026505 491.929993,107.015305 
	C503.869415,106.911552 515.809875,106.927040 528.195190,106.905487 
z"/>
<path fill="#F7D5BF" opacity="1.000000" stroke="none" 
	d="
M139.017670,96.330742 
	C141.847473,98.174782 144.684341,100.481171 147.729004,102.469360 
	C149.797119,103.819862 152.156601,104.724174 154.747101,105.915482 
	C152.730118,108.301872 150.592667,108.566109 148.165344,105.813362 
	C145.331497,102.599609 142.146118,99.695831 139.017670,96.330742 
z"/>
<path fill="#F7D5BF" opacity="1.000000" stroke="none" 
	d="
M147.086761,52.736153 
	C139.179260,51.233543 131.100250,49.379387 122.704468,47.385883 
	C131.083176,46.478706 139.366592,47.677898 147.086761,52.736153 
z"/>
<path fill="#EBEBEB" opacity="1.000000" stroke="none" 
	d="
M488.406128,143.191315 
	C489.267365,142.852921 490.566681,141.927490 491.879486,141.907898 
	C500.425842,141.780258 508.977386,141.945068 517.520874,141.744522 
	C518.717590,141.716431 519.879578,140.212280 521.013916,138.921051 
	C521.366760,139.789398 521.763306,141.128082 522.324646,143.023193 
	C510.846405,143.023193 499.848450,143.023193 488.406128,143.191315 
z"/>
<path fill="#A2A2A2" opacity="1.000000" stroke="none" 
	d="
M487.437866,176.766632 
	C487.116730,166.071594 487.182770,155.182510 487.647705,144.101501 
	C487.972717,154.797241 487.898895,165.684906 487.437866,176.766632 
z"/>
<path fill="#FEFEFE" opacity="1.000000" stroke="none" 
	d="
M335.084045,144.671082 
	C335.423859,147.058762 335.913696,149.895447 335.953827,152.738464 
	C336.063263,160.490585 335.982788,168.245392 335.926208,176.460266 
	C335.582550,175.099121 335.054352,173.278976 335.037964,171.454224 
	C334.959167,162.677826 335.018555,153.900177 335.084045,144.671082 
z"/>
<path fill="#A2A2A2" opacity="1.000000" stroke="none" 
	d="
M517.862793,128.656982 
	C509.393524,128.971527 500.667786,128.977829 491.944153,128.846542 
	C490.461975,128.824219 488.988678,128.211380 487.644775,127.608414 
	C493.614471,127.595894 499.449341,127.886093 505.287323,128.083267 
	C509.391663,128.221863 513.500305,128.233871 517.862793,128.656982 
z"/>
<path fill="#F7D5BF" opacity="1.000000" stroke="none" 
	d="
M138.229034,95.426224 
	C138.375793,95.408142 138.598282,95.587891 138.927643,95.915459 
	C138.756256,95.974953 138.513000,95.828545 138.229034,95.426224 
z"/>
<path fill="#000000" opacity="1.000000" stroke="none" 
	d="
M421.981781,137.004379 
	C426.111206,135.004852 430.058197,132.305832 434.412872,131.169998 
	C440.920441,129.472641 445.987457,132.495728 449.252014,138.581482 
	C441.171112,138.978638 433.268829,139.068146 425.371613,138.908890 
	C424.229340,138.885864 423.111115,137.668869 421.981781,137.004379 
z"/>
<path fill="#FEFEFE" opacity="1.000000" stroke="none" 
	d="
M421.623993,137.242676 
	C423.111115,137.668869 424.229340,138.885864 425.371613,138.908890 
	C433.268829,139.068146 441.171112,138.978638 449.502930,138.783737 
	C449.810089,139.115845 449.690125,140.085037 449.561432,140.086212 
	C440.522705,140.168060 431.482758,140.207703 422.445709,140.068985 
	C422.039398,140.062759 421.658783,138.381851 421.623993,137.242676 
z"/>
<path fill="#000000" opacity="1.000000" stroke="none" 
	d="
M601.681763,155.434021 
	C596.059937,161.060150 590.541138,165.473709 581.939575,163.162766 
	C575.101685,161.325699 572.062256,156.679520 570.496460,150.575027 
	C568.980896,144.666107 570.761230,139.400528 575.123230,135.284912 
	C580.886658,129.847061 589.871887,129.197968 595.862366,133.652130 
	C602.950623,138.922516 606.446472,146.327881 601.681763,155.434021 
z"/>
</svg>