<svg width="165" height="176" viewBox="0 0 165 176" fill="none" xmlns="http://www.w3.org/2000/svg">
<g clip-path="url(#clip0_2566_6877)">
<path d="M48.0696 117.8C37.8696 109.65 27.5696 101.63 17.5096 93.3C12.9096 89.5 8.98963 84.89 4.41963 81.05C0.979626 78.16 0.399626 74.74 1.17963 70.81C9.06963 30.73 40.4496 4.36996 78.2396 0.559962C113.24 -2.96004 140.88 10.05 160.9 39C161.72 40.18 162.34 41.5 163.43 43.4C151.49 48.25 140.04 53.05 128.42 57.39C127.27 57.82 124.79 55.74 123.4 54.36C106.81 37.85 83.8296 34.63 63.4496 46.07C45.2796 56.27 36.7096 75.83 40.8196 98.07C41.4496 101.47 42.3796 104.89 43.7096 108.07C45.0196 111.2 47.0096 114.04 48.6996 117C48.4896 117.26 48.2796 117.53 48.0796 117.79L48.0696 117.8Z" fill="#EC6B15"/>
<path d="M165.1 128.89C151.19 161.94 105.42 182.61 67.9401 173.69C23.5701 163.13 -1.08987 122.12 0.0401274 90.0298C6.34013 95.7998 12.2701 101.46 18.4501 106.83C33.6101 120 49.9901 131.48 69.8401 136.05C95.7601 142.01 111.68 137.97 127.75 118.26C129.14 116.56 130.01 114.85 132.9 116.05C143.46 120.44 154.13 124.55 165.11 128.9L165.1 128.89Z" fill="white"/>
</g>
<defs>
<clipPath id="clip0_2566_6877">
<rect width="165" height="176" fill="white"/>
</clipPath>
</defs>
</svg>
